<?xml version="1.0" encoding="UTF-8" standalone="no"?>
<!-- Created with Inkscape (http://www.inkscape.org/) -->

<svg
   width="110.29493mm"
   height="110.40675mm"
   viewBox="0 0 110.29493 110.40675"
   version="1.1"
   id="svg958"
   xmlns:inkscape="http://www.inkscape.org/namespaces/inkscape"
   xmlns:sodipodi="http://sodipodi.sourceforge.net/DTD/sodipodi-0.dtd"
   xmlns="http://www.w3.org/2000/svg"
   xmlns:svg="http://www.w3.org/2000/svg">
  <sodipodi:namedview
     id="namedview960"
     pagecolor="#ffffff"
     bordercolor="#000000"
     borderopacity="0.25"
     inkscape:showpageshadow="2"
     inkscape:pageopacity="0.0"
     inkscape:pagecheckerboard="0"
     inkscape:deskcolor="#d1d1d1"
     inkscape:document-units="mm"
     showgrid="false"
     inkscape:zoom="0.3415312"
     inkscape:cx="-342.57485"
     inkscape:cy="556.31813"
     inkscape:window-width="1309"
     inkscape:window-height="498"
     inkscape:window-x="0"
     inkscape:window-y="25"
     inkscape:window-maximized="0"
     inkscape:current-layer="layer1" />
  <defs
     id="defs955" />
  <g
     inkscape:label="Layer 1"
     inkscape:groupmode="layer"
     id="layer1"
     transform="translate(-45.807,-96.200925)">
    <g
       id="g668"
       transform="matrix(0.34789069,0,0,-0.35527062,-86.557754,287.62074)"
       inkscape:export-filename="g668.svg"
       inkscape:export-xdpi="96"
       inkscape:export-ydpi="96">
      <g
         id="g64">
        <path
           d="M 380.478,538.8 V 228.032 H 697.517 V 538.8 Z"
           style="fill:#303841;fill-opacity:1;fill-rule:evenodd;stroke:none"
           id="path66" />
      </g>
      <g
         id="g68">
        <g
           id="g70">
          <path
             d="M 471.811,485.342 617.221,299.233"
             style="fill:none;stroke:#eab238;stroke-width:1.657;stroke-linecap:round;stroke-linejoin:round;stroke-miterlimit:10;stroke-dasharray:none;stroke-opacity:1"
             id="path72" />
        </g>
        <g
           id="g74">
          <path
             d="m 463.377,503.207 c 6.133,2.18 12.881,-1.029 15.061,-7.163 2.179,-6.133 -1.029,-12.881 -7.163,-15.061 -6.134,-2.18 -12.881,1.029 -15.061,7.163 -2.18,6.134 1.029,12.881 7.163,15.061 z"
             style="fill:#ffffff;fill-opacity:1;fill-rule:evenodd;stroke:none"
             id="path76" />
        </g>
        <g
           id="g78">
          <path
             d="m 618.826,301.662 c 6.134,2.18 12.881,-1.029 15.061,-7.163 2.18,-6.134 -1.029,-12.881 -7.163,-15.061 -6.134,-2.18 -12.881,1.029 -15.061,7.163 -2.18,6.134 1.029,12.881 7.163,15.061 z"
             style="fill:#ffffff;fill-opacity:1;fill-rule:evenodd;stroke:none"
             id="path80" />
        </g>
      </g>
      <g
         id="g82">
        <g
           id="g84">
          <path
             d="m 549.13,266.182 -4.12,236.145"
             style="fill:none;stroke:#eab238;stroke-width:3.315;stroke-linecap:round;stroke-linejoin:round;stroke-miterlimit:10;stroke-dasharray:none;stroke-opacity:1"
             id="path86" />
        </g>
        <g
           id="g88">
          <path
             d="m 545.115,246.84 c -6.211,1.95 -9.668,8.574 -7.718,14.784 1.951,6.211 8.574,9.668 14.785,7.718 6.21,-1.95 9.668,-8.574 7.717,-14.784 -1.95,-6.211 -8.574,-9.668 -14.784,-7.718 z"
             style="fill:#ffffff;fill-opacity:1;fill-rule:evenodd;stroke:none"
             id="path90" />
        </g>
        <g
           id="g92">
          <path
             d="m 542.26,501.353 c -6.21,1.95 -9.668,8.574 -7.717,14.784 1.95,6.211 8.574,9.668 14.784,7.718 6.211,-1.951 9.668,-8.574 7.718,-14.785 -1.951,-6.21 -8.574,-9.668 -14.785,-7.717 z"
             style="fill:#ffffff;fill-opacity:1;fill-rule:evenodd;stroke:none"
             id="path94" />
        </g>
      </g>
      <g
         id="g96">
        <g
           id="g98">
          <path
             d="M 422.408,388.342 H 658.591"
             style="fill:none;stroke:#eab238;stroke-width:1.657;stroke-linecap:round;stroke-linejoin:round;stroke-miterlimit:10;stroke-dasharray:none;stroke-opacity:1"
             id="path100" />
        </g>
        <g
           id="g102">
          <path
             d="m 403.14,392.692 c 2.059,6.176 8.742,9.517 14.917,7.459 6.176,-2.059 9.517,-8.742 7.459,-14.917 -2.059,-6.176 -8.742,-9.517 -14.917,-7.458 -6.176,2.058 -9.517,8.741 -7.459,14.916 z"
             style="fill:#ffffff;fill-opacity:1;fill-rule:evenodd;stroke:none"
             id="path104" />
        </g>
        <g
           id="g106">
          <path
             d="m 657.664,391.105 c 2.059,6.175 8.741,9.516 14.917,7.458 6.176,-2.059 9.517,-8.741 7.458,-14.917 -2.058,-6.175 -8.741,-9.517 -14.916,-7.458 -6.176,2.058 -9.517,8.741 -7.459,14.917 z"
             style="fill:#ffffff;fill-opacity:1;fill-rule:evenodd;stroke:none"
             id="path108" />
        </g>
      </g>
      <g
         id="g110">
        <g
           id="g112">
          <path
             d="M 470.551,291.17 615.962,477.281"
             style="fill:none;stroke:#eab238;stroke-width:1.657;stroke-linecap:round;stroke-linejoin:round;stroke-miterlimit:10;stroke-dasharray:none;stroke-opacity:1"
             id="path114" />
        </g>
        <g
           id="g116">
          <path
             d="m 455.261,278.665 c -3.599,5.424 -2.117,12.747 3.307,16.346 5.424,3.599 12.747,2.118 16.346,-3.306 3.599,-5.424 2.118,-12.747 -3.306,-16.346 -5.424,-3.6 -12.748,-2.118 -16.347,3.306 z"
             style="fill:#ffffff;fill-opacity:1;fill-rule:evenodd;stroke:none"
             id="path118" />
        </g>
        <g
           id="g120">
          <path
             d="m 613.213,478.255 c -3.599,5.424 -2.118,12.747 3.307,16.346 5.424,3.599 12.747,2.118 16.346,-3.306 3.599,-5.424 2.118,-12.747 -3.306,-16.346 -5.425,-3.6 -12.748,-2.118 -16.347,3.306 z"
             style="fill:#ffffff;fill-opacity:1;fill-rule:evenodd;stroke:none"
             id="path122" />
        </g>
      </g>
      <g
         id="g124">
        <g
           id="g126">
          <path
             d="M 431.148,438.433 654.609,343.582"
             style="fill:none;stroke:#eab238;stroke-width:1.704;stroke-linecap:round;stroke-linejoin:round;stroke-miterlimit:10;stroke-dasharray:none;stroke-opacity:1"
             id="path128" />
        </g>
        <g
           id="g130">
          <path
             d="m 414.664,450.289 c 4.428,5.016 12.092,5.494 17.109,1.066 5.016,-4.428 5.494,-12.093 1.066,-17.109 -4.428,-5.016 -12.093,-5.494 -17.109,-1.066 -5.017,4.428 -5.494,12.093 -1.066,17.109 z"
             style="fill:#ffffff;fill-opacity:1;fill-rule:evenodd;stroke:none"
             id="path132" />
        </g>
        <g
           id="g134">
          <path
             d="m 654.844,346.566 c 4.428,5.016 12.093,5.493 17.109,1.066 5.016,-4.428 5.494,-12.093 1.066,-17.109 -4.428,-5.017 -12.093,-5.494 -17.109,-1.066 -5.017,4.428 -5.494,12.092 -1.066,17.109 z"
             style="fill:#ffffff;fill-opacity:1;fill-rule:evenodd;stroke:none"
             id="path136" />
        </g>
      </g>
      <g
         id="g138">
        <g
           id="g140">
          <path
             d="m 432.719,337.757 215.764,96.058"
             style="fill:none;stroke:#eab238;stroke-width:1.657;stroke-linecap:round;stroke-linejoin:round;stroke-miterlimit:10;stroke-dasharray:none;stroke-opacity:1"
             id="path142" />
        </g>
        <g
           id="g144">
          <path
             d="m 413.346,333.893 c -0.631,6.479 4.115,12.25 10.593,12.881 6.479,0.631 12.25,-4.115 12.881,-10.593 0.632,-6.479 -4.114,-12.25 -10.593,-12.881 -6.479,-0.632 -12.25,4.114 -12.881,10.593 z"
             style="fill:#ffffff;fill-opacity:1;fill-rule:evenodd;stroke:none"
             id="path146" />
        </g>
        <g
           id="g148">
          <path
             d="m 646.511,435.967 c -0.631,6.479 4.115,12.25 10.593,12.881 6.479,0.631 12.25,-4.115 12.881,-10.594 0.632,-6.479 -4.114,-12.249 -10.593,-12.881 -6.479,-0.631 -12.25,4.115 -12.881,10.594 z"
             style="fill:#ffffff;fill-opacity:1;fill-rule:evenodd;stroke:none"
             id="path150" />
        </g>
      </g>
      <g
         id="g152">
        <g
           id="g154">
          <path
             d="M 492.047,433.745 599.79,346.502"
             style="fill:none;stroke:#eab238;stroke-width:0.972;stroke-linecap:round;stroke-linejoin:round;stroke-miterlimit:10;stroke-dasharray:none;stroke-opacity:1"
             id="path156" />
        </g>
        <g
           id="g158">
          <path
             d="m 484.866,442.85 c 3.22,2.057 7.503,1.113 9.56,-2.108 2.056,-3.22 1.112,-7.503 -2.108,-9.56 -3.221,-2.056 -7.504,-1.112 -9.56,2.108 -2.057,3.221 -1.113,7.504 2.108,9.56 z"
             style="fill:#ffffff;fill-opacity:1;fill-rule:evenodd;stroke:none"
             id="path160" />
        </g>
        <g
           id="g162">
          <path
             d="m 600.387,348.104 c 3.221,2.056 7.503,1.112 9.56,-2.108 2.057,-3.221 1.112,-7.504 -2.108,-9.56 -3.22,-2.057 -7.503,-1.113 -9.56,2.108 -2.057,3.22 -1.112,7.503 2.108,9.56 z"
             style="fill:#ffffff;fill-opacity:1;fill-rule:evenodd;stroke:none"
             id="path164" />
        </g>
      </g>
      <g
         id="g166">
        <g
           id="g168">
          <path
             d="M 573.362,321.165 523.676,450.591"
             style="fill:none;stroke:#eab238;stroke-width:0.972;stroke-linecap:round;stroke-linejoin:round;stroke-miterlimit:10;stroke-dasharray:none;stroke-opacity:1"
             id="path170" />
        </g>
        <g
           id="g172">
          <path
             d="m 575.028,309.69 c -3.817,-0.171 -7.054,2.788 -7.225,6.605 -0.171,3.818 2.788,7.055 6.606,7.226 3.817,0.171 7.054,-2.789 7.225,-6.606 0.171,-3.817 -2.789,-7.054 -6.606,-7.225 z"
             style="fill:#ffffff;fill-opacity:1;fill-rule:evenodd;stroke:none"
             id="path174" />
        </g>
        <g
           id="g176">
          <path
             d="m 522.357,449.504 c -3.817,-0.171 -7.054,2.788 -7.225,6.605 -0.171,3.818 2.788,7.054 6.605,7.225 3.818,0.171 7.055,-2.788 7.226,-6.605 0.171,-3.817 -2.789,-7.054 -6.606,-7.225 z"
             style="fill:#ffffff;fill-opacity:1;fill-rule:evenodd;stroke:none"
             id="path178" />
        </g>
      </g>
      <g
         id="g180">
        <g
           id="g182">
          <path
             d="m 476.6,371.744 135.085,31.188"
             style="fill:none;stroke:#eab238;stroke-width:0.972;stroke-linecap:round;stroke-linejoin:round;stroke-miterlimit:10;stroke-dasharray:none;stroke-opacity:1"
             id="path184" />
        </g>
        <g
           id="g186">
          <path
             d="m 465.007,371.688 c 0.362,3.804 3.743,6.597 7.546,6.235 3.804,-0.361 6.598,-3.742 6.236,-7.546 -0.362,-3.804 -3.743,-6.598 -7.547,-6.236 -3.804,0.362 -6.597,3.743 -6.235,7.547 z"
             style="fill:#ffffff;fill-opacity:1;fill-rule:evenodd;stroke:none"
             id="path188" />
        </g>
        <g
           id="g190">
          <path
             d="m 610.79,404.388 c 0.362,3.804 3.743,6.598 7.547,6.236 3.804,-0.362 6.597,-3.743 6.236,-7.547 -0.362,-3.804 -3.743,-6.597 -7.547,-6.236 -3.804,0.362 -6.598,3.743 -6.236,7.547 z"
             style="fill:#ffffff;fill-opacity:1;fill-rule:evenodd;stroke:none"
             id="path192" />
        </g>
      </g>
      <g
         id="g194">
        <g
           id="g196">
          <path
             d="m 523.751,319.771 45.141,131.083"
             style="fill:none;stroke:#eab238;stroke-width:0.972;stroke-linecap:round;stroke-linejoin:round;stroke-miterlimit:10;stroke-dasharray:none;stroke-opacity:1"
             id="path198" />
        </g>
        <g
           id="g200">
          <path
             d="m 517.657,309.909 c -3.034,2.322 -3.612,6.67 -1.289,9.704 2.323,3.034 6.67,3.611 9.704,1.289 3.034,-2.323 3.612,-6.671 1.289,-9.705 -2.323,-3.034 -6.67,-3.611 -9.704,-1.288 z"
             style="fill:#ffffff;fill-opacity:1;fill-rule:evenodd;stroke:none"
             id="path202" />
        </g>
        <g
           id="g204">
          <path
             d="m 567.179,450.869 c -3.034,2.322 -3.612,6.67 -1.289,9.704 2.323,3.034 6.67,3.611 9.704,1.289 3.035,-2.323 3.612,-6.671 1.289,-9.705 -2.322,-3.034 -6.67,-3.611 -9.704,-1.288 z"
             style="fill:#ffffff;fill-opacity:1;fill-rule:evenodd;stroke:none"
             id="path206" />
        </g>
      </g>
      <g
         id="g208">
        <g
           id="g210">
          <path
             d="M 474.986,401.55 615.318,376.804"
             style="fill:none;stroke:#eab238;stroke-width:1;stroke-linecap:round;stroke-linejoin:round;stroke-miterlimit:10;stroke-dasharray:none;stroke-opacity:1"
             id="path212" />
        </g>
        <g
           id="g214">
          <path
             d="m 463.992,406.152 c 1.87,3.454 6.191,4.739 9.645,2.869 3.453,-1.871 4.739,-6.191 2.869,-9.645 -1.871,-3.454 -6.191,-4.739 -9.645,-2.869 -3.454,1.87 -4.739,6.191 -2.869,9.645 z"
             style="fill:#ffffff;fill-opacity:1;fill-rule:evenodd;stroke:none"
             id="path216" />
        </g>
        <g
           id="g218">
          <path
             d="m 615.058,378.542 c 1.87,3.454 6.191,4.739 9.645,2.869 3.454,-1.87 4.739,-6.191 2.869,-9.645 -1.87,-3.454 -6.191,-4.739 -9.645,-2.869 -3.454,1.87 -4.739,6.191 -2.869,9.645 z"
             style="fill:#ffffff;fill-opacity:1;fill-rule:evenodd;stroke:none"
             id="path220" />
        </g>
      </g>
      <g
         id="g222">
        <g
           id="g224">
          <path
             d="m 489.919,343.202 109.249,85.35"
             style="fill:none;stroke:#eab238;stroke-width:0.972;stroke-linecap:round;stroke-linejoin:round;stroke-miterlimit:10;stroke-dasharray:none;stroke-opacity:1"
             id="path226" />
        </g>
        <g
           id="g228">
          <path
             d="m 479.434,338.252 c -1.279,3.601 0.604,7.561 4.205,8.841 3.6,1.28 7.561,-0.604 8.841,-4.205 1.279,-3.6 -0.604,-7.561 -4.205,-8.84 -3.6,-1.28 -7.561,0.604 -8.841,4.204 z"
             style="fill:#ffffff;fill-opacity:1;fill-rule:evenodd;stroke:none"
             id="path230" />
        </g>
        <g
           id="g232">
          <path
             d="m 597.74,429.5 c -1.28,3.6 0.604,7.561 4.204,8.84 3.6,1.28 7.561,-0.604 8.841,-4.204 1.279,-3.601 -0.604,-7.561 -4.205,-8.841 -3.6,-1.28 -7.561,0.604 -8.84,4.205 z"
             style="fill:#ffffff;fill-opacity:1;fill-rule:evenodd;stroke:none"
             id="path234" />
        </g>
      </g>
    </g>
  </g>
</svg>
